<?xml version="1.0" encoding="utf-8"?>
<!-- Generator: Adobe Illustrator 25.2.1, SVG Export Plug-In . SVG Version: 6.00 Build 0)  -->
<svg version="1.1" id="Layer_1" xmlns="http://www.w3.org/2000/svg" xmlns:xlink="http://www.w3.org/1999/xlink" x="0px" y="0px"
	 viewBox="0 0 200 200" style="enable-background:new 0 0 200 200;" xml:space="preserve">
<style type="text/css">
	.st0{fill:#252652;}
	.st1{fill:#119CD8;}
	.st2{fill:#159DD9;}
</style>
<g>
	<g>
		<path class="st1" d="M113.7,198.7H80.4c-1.1,0-2-0.9-2-2v-71.5H53.3c-1.1,0-2-0.9-2-2V93.9c0-1.1,0.9-2,2-2h25.1v-21
			c0-25.1,16.7-40.6,43.5-40.6c11.6,0,21.9,0.8,25.1,1.2c1,0.1,1.8,1,1.8,2v26.1c0,1.1-0.9,2-2,2h-17.1c-11.7,0-14,4.3-14,12.2v18.1
			h28.2c0.5,0,1.1,0.2,1.4,0.6c0.4,0.4,0.6,0.9,0.6,1.4l-0.3,29.2c0,1.1-0.9,2-2,2h-27.9v71.5C115.7,197.8,114.8,198.7,113.7,198.7z
			 M82.4,194.7h29.3v-71.5c0-1.1,0.9-2,2-2h27.9l0.2-25.2h-28.2c-1.1,0-2-0.9-2-2V73.8c0-8,2.2-16.2,18-16.2h15.1V35.2
			c-4.3-0.4-13.1-1-22.9-1c-24.7,0-39.5,13.7-39.5,36.6v23c0,1.1-0.9,2-2,2H55.3v25.2h25.1c1.1,0,2,0.9,2,2V194.7z"/>
	</g>
	<g>
		<path class="st0" d="M173.4,198.6H26.6c-13.5,0-24.5-11-24.5-24.5V25.8c0-13.5,11-24.5,24.5-24.5h146.8c13.5,0,24.5,11,24.5,24.5
			v148.2C197.9,187.6,186.9,198.6,173.4,198.6z M26.6,5.3c-11.3,0-20.5,9.2-20.5,20.5v148.2c0,11.3,9.2,20.5,20.5,20.5h146.8
			c11.3,0,20.5-9.2,20.5-20.5V25.8c0-11.3-9.2-20.5-20.5-20.5H26.6z"/>
	</g>
</g>
</svg>
